<svg xmlns="http://www.w3.org/2000/svg" width="139" height="104" viewBox="0 0 139 104"><g transform="translate(0 0)"><path d="M34.248,90.717a107.822,107.822,0,0,0,10.332,5.32c9.575,4.351,19.259,7.565,26.471,11.486.448.231.88.477,1.3.723a27.076,27.076,0,0,0-7.568,6.335l.51.354a27.214,27.214,0,0,1,7.629-6.35,25.708,25.708,0,0,1,7.274,6.15l.525-.354a26.008,26.008,0,0,0-7.212-6.15,145.284,145.284,0,0,1,17.158-7.688c3.2-1.307,6.579-2.721,10.008-4.29,34.3-15.837,41.776-41.9,29.467-70.312l-.293.138c11.923,27.83,5.158,53.814-29.344,69.666C97.075,97.282,93.708,98.7,90.5,100a149.483,149.483,0,0,0-17.5,7.9c-.51-.308-1.035-.6-1.544-.892C64.179,103.079,54.465,99.9,44.9,95.56a103.442,103.442,0,0,1-10.286-5.274C9.924,75.741,4.256,51.54,15.113,26.032l-.324-.092C3.854,51.571,9.46,75.987,34.248,90.717Z" transform="translate(-2.572 -10.934)" fill="#f5f5f5"/><path d="M46.973,79.875c.649-2.552.479-5.5-4.88-9.81A48.109,48.109,0,0,0,38,67.19C38.386,76.031,43.282,77.123,46.973,79.875Z" transform="translate(12.965 11.24)" fill="#f5f5f5"/><path d="M37.39,75.2c1.39.984,2.718,1.722,3.274,2.076.988-5.212-3.985-9.225-8.417-12.3a12.6,12.6,0,0,0,1.544,6.8A12.906,12.906,0,0,0,37.39,75.2Z" transform="translate(9.823 10.052)" fill="#f5f5f5"/><path d="M34.265,74.77c.88-4.613-2.734-8.549-7.182-12.47C25.91,68.927,29.879,71.987,34.265,74.77Z" transform="translate(6.909 8.612)" fill="#f5f5f5"/><path d="M27.987,71.861c.927-3.767-1.22-7.826-5.282-12.731C20.682,64.435,23.261,68.448,27.987,71.861Z" transform="translate(4.26 6.908)" fill="#f5f5f5"/><path d="M22.091,68.282c1.436-3.952-.757-9.225-2.8-12.992C16.9,58.826,17.087,63.347,22.091,68.282Z" transform="translate(1.971 4.843)" fill="#f5f5f5"/><path d="M16.972,50.72c-3.861,3.659-2.934,8.656,0,13.054C19.042,60.13,18.084,54.7,16.972,50.72Z" transform="translate(0.124 2.387)" fill="#f5f5f5"/><path d="M15.672,45.5c-2.734,1.753-5.066,5.873-2.5,12.792C15.8,55.064,16.12,49.344,15.672,45.5Z" transform="translate(-1.155 -0.419)" fill="#f5f5f5"/><path d="M15.077,43.383A25.514,25.514,0,0,0,15.555,40c-3.089,1.292-5.838,4.889-4.633,12.116A16.37,16.37,0,0,0,15.077,43.383Z" transform="translate(-1.934 -3.375)" fill="#f5f5f5"/><path d="M16.577,34.25c-2.981.769-6.332,3.89-6.487,11.255C14.121,42.491,16.129,36.941,16.577,34.25Z" transform="translate(-2.229 -6.467)" fill="#f5f5f5"/><path d="M18.482,28.55c-4.865.615-6.9,5.766-7.892,10.317A19.156,19.156,0,0,0,18.482,28.55Z" transform="translate(-1.957 -9.531)" fill="#f5f5f5"/><path d="M12.15,32.364A18.775,18.775,0,0,0,21.061,23C15.409,23,12.984,30.165,12.15,32.364Z" transform="translate(-1.107 -12.514)" fill="#f5f5f5"/><path d="M21.172,16.18c-6.023,4.813-8.015,10.1-7.722,13.669C16.817,27.865,19.967,19.839,21.172,16.18Z" transform="translate(-0.415 -16.18)" fill="#f5f5f5"/><path d="M48.478,77.135c-.88-.138-6.07-1.676-9.266-.923a18.211,18.211,0,0,0-6.672,3.321,37.57,37.57,0,0,0,5.282,1.03C44.679,81.317,47.027,79.226,48.478,77.135Z" transform="translate(9.993 15.979)" fill="#f5f5f5"/><path d="M32.633,73.079a21.546,21.546,0,0,0-7.073,2.6,35.437,35.437,0,0,0,5.313,1.538,17.547,17.547,0,0,0,6.934,0,6.872,6.872,0,0,0,4.062-2.8c-.479-.077-1.977-.523-3.753-.892A17.316,17.316,0,0,0,32.633,73.079Z" transform="translate(6.193 14.377)" fill="#f5f5f5"/><path d="M18.76,70.748a29.673,29.673,0,0,0,5.127,2.322c6.564,2.2,9.529.538,11.351-1.4-.958-.231-5.884-2.291-8.958-2.291A26,26,0,0,0,18.76,70.748Z" transform="translate(2.491 12.417)" fill="#f5f5f5"/><path d="M12.68,64.464a25.494,25.494,0,0,0,4.541,3.413c5.807,3.383,9.266,2.429,11.506.753C24.51,66.848,23.043,64.049,12.68,64.464Z" transform="translate(-0.819 9.753)" fill="#f5f5f5"/><path d="M22.478,65.245C17.922,62.016,18.185,59.755,8.1,57.28,11.266,62.354,16.733,67.612,22.478,65.245Z" transform="translate(-3.312 5.913)" fill="#f5f5f5"/><path d="M5.6,49.38a23.917,23.917,0,0,0,2.039,4.859c3.089,5.551,6.456,6.581,9.405,6.273C13.646,56.483,14.727,54.346,5.6,49.38Z" transform="translate(-4.673 1.667)" fill="#f5f5f5"/><path d="M13.17,54.554c-2.1-4.49-.649-6.365-8.17-13.254C5.432,46.989,7.3,53.493,13.17,54.554Z" transform="translate(-5 -2.677)" fill="#f5f5f5"/><path d="M11.038,47.847c-.88-4.936.695-6.55-4.819-14.407C5.447,39.006,5.8,45.387,11.038,47.847Z" transform="translate(-4.505 -6.902)" fill="#f5f5f5"/><path d="M10.851,40.826c.216-4.613,2.023-6.258-1.761-14.776C7.345,31.247,6.5,37.32,10.851,40.826Z" transform="translate(-3.546 -10.875)" fill="#f5f5f5"/><path d="M13.108,19.21C10.59,23.992,8.8,29.6,12.243,33.847,13.262,29.25,15.332,28.4,13.108,19.21Z" transform="translate(-2.096 -14.551)" fill="#f5f5f5"/><path d="M61.345,76.449c-1.807.308-3.336.738-3.815.815a6.991,6.991,0,0,0,3.938,3,17.818,17.818,0,0,0,6.764.431A38.077,38.077,0,0,0,73.5,79.678a18.278,18.278,0,0,0-6.672-3.352A15.388,15.388,0,0,0,61.345,76.449Z" transform="translate(23.598 16.05)" fill="#f5f5f5"/><path d="M67.416,73.888c-1.714.323-3.2.753-3.846.892a7.171,7.171,0,0,0,4.2,2.783A22.362,22.362,0,0,0,79.678,76.21,15.156,15.156,0,0,0,67.416,73.888Z" transform="translate(26.886 14.613)" fill="#f5f5f5"/><path d="M75.89,70.544A51.777,51.777,0,0,0,69.62,72.3c3.83,4.151,11.058,2.26,16.185-.354A17.882,17.882,0,0,0,75.89,70.544Z" transform="translate(30.18 12.944)" fill="#f5f5f5"/><path d="M91.347,66.713c-7.12-1.661-12.849,1.538-15.877,2.967C79.81,73.109,86.93,70.188,91.347,66.713Z" transform="translate(33.365 10.733)" fill="#f5f5f5"/><path d="M95.578,60.59c-6.734,0-12.093,4.367-14.718,6.15C85.787,69.185,92.15,64.957,95.578,60.59Z" transform="translate(36.299 7.692)" fill="#f5f5f5"/><path d="M85.43,63.092c5.266.969,10.471-4.459,12.463-9.3C91.855,55.1,87.469,60.847,85.43,63.092Z" transform="translate(38.787 4.037)" fill="#f5f5f5"/><path d="M88.78,58.232c5.683-.615,8.988-7.688,9.575-11.532C93.043,49.006,90.216,55.449,88.78,58.232Z" transform="translate(40.611 0.226)" fill="#f5f5f5"/><path d="M90.72,52.532c4.633-1.86,6.842-8.118,6.595-12.962C92.7,42.614,91.415,49.933,90.72,52.532Z" transform="translate(41.667 -3.607)" fill="#f5f5f5"/><path d="M94.985,32.71C91.031,36.354,91.464,44,91.34,46.333,95.448,43.334,96.112,37.107,94.985,32.71Z" transform="translate(42.004 -7.294)" fill="#f5f5f5"/><path d="M92.02,26.24C88.931,30.115,90.475,36.864,91,39.94,94.259,35.942,93.78,30.007,92.02,26.24Z" transform="translate(41.355 -10.772)" fill="#f5f5f5"/><path d="M88.553,20.22C86,24.371,88.877,30.675,89.8,33.627A13.676,13.676,0,0,0,88.553,20.22Z" transform="translate(39.927 -14.008)" fill="#f5f5f5"/><path d="M89.992,29.792c.6-2.6-2.162-9.687-8.062-13.392C82.81,18.4,85.312,26.087,89.992,29.792Z" transform="translate(36.881 -16.062)" fill="#f5f5f5"/><path d="M66.257,67.07c-5.066,3.275-10.394,7.1-9.019,12.669C60.944,76.956,65.84,75.9,66.257,67.07Z" transform="translate(23.319 11.176)" fill="#f5f5f5"/><path d="M67.169,74.906c3.089-2.2,5.251-4.613,5.1-10.486C67.169,68.279,63,71.769,64,76.951,64.374,76.674,65.717,75.936,67.169,74.906Z" transform="translate(27.04 9.751)" fill="#f5f5f5"/><path d="M73.583,71.919c2.826-2.322,4.726-4.982,3.768-10.609-4.34,4.367-7.861,7.811-6.7,12.792C71,73.81,72.27,73.011,73.583,71.919Z" transform="translate(30.618 8.08)" fill="#f5f5f5"/><path d="M81.267,57.49c-3.707,5.72-5.745,8.872-4.278,13.223C79.4,68.207,84.325,65.27,81.267,57.49Z" transform="translate(33.931 6.026)" fill="#f5f5f5"/><path d="M83.487,65.354a19.443,19.443,0,0,0,1.174-1.8c1.869-3.213,2.255-6.335-.757-10.655-2.394,6.811-3.089,9.81-1.189,13.484A5.127,5.127,0,0,1,83.487,65.354Z" transform="translate(36.714 3.559)" fill="#f5f5f5"/><path d="M86.658,59.687a10.87,10.87,0,0,0,.819,1.076c.17-.507,2.27-4.613,1.544-7.811a11.987,11.987,0,0,0-3.475-5.612C85.16,50.861,84.233,56.043,86.658,59.687Z" transform="translate(38.578 0.57)" fill="#f5f5f5"/><path d="M91.019,54.117a11.73,11.73,0,0,1,.185-1.2,7.886,7.886,0,0,1,.139-.953V50.857a10.25,10.25,0,0,0-.68-4.613,13.07,13.07,0,0,0-4.463-4.9C86.88,47.383,87.436,51.211,91.019,54.117Z" transform="translate(39.206 -2.655)" fill="#f5f5f5"/><path d="M85.87,35.1c.386,1.4,1.7,6.765,4.17,9.579a6.991,6.991,0,0,0,.757.753,11.461,11.461,0,0,0,2.116,1.538C92.526,43.68,93.376,38.867,85.87,35.1Z" transform="translate(39.026 -6.01)" fill="#f5f5f5"/><path d="M84.3,28.85c2.27,5,4.17,8.949,8.8,10.686C92.146,36.369,92.192,31.8,84.3,28.85Z" transform="translate(38.172 -9.37)" fill="#f5f5f5"/><path d="M91.892,32.333c-1.544-3.2-2.224-7.4-10.162-9.533C84.742,27.72,87.151,31.149,91.892,32.333Z" transform="translate(36.772 -12.622)" fill="#f5f5f5"/></g></svg>